<svg xmlns="http://www.w3.org/2000/svg" id="Layer_1" data-name="Layer 1" viewBox="0 0 181.87 34.74"><defs><style>.cls-1{fill:#1450a3}.cls-2,.cls-3{fill:#ffe066}.cls-2{stroke:#1450a3;stroke-miterlimit:10;stroke-width:.5px}</style></defs><path d="M58.55,289.93l3.17-32.76H72.81l3.13,32.76H69.72l-.45-5.3h-4l-.38,5.3ZM65.8,279.4h3l-1.45-16.66H67Z" class="cls-1" transform="translate(-58.55 -255.49)"/><path d="M79.64,287.91q-2-2.32-2-7.13v-8.62a18.45,18.45,0,0,1,.78-5.89A6.27,6.27,0,0,1,81,262.85a9.75,9.75,0,0,1,5.13-1.14A8.79,8.79,0,0,1,92,263.58a6.4,6.4,0,0,1,2.25,5.22v4.27H87.46v-3.92a3.82,3.82,0,0,0-.31-1.7,1.19,1.19,0,0,0-1.18-.59c-1.09,0-1.64.77-1.64,2.32v13.54a3,3,0,0,0,.4,1.62,1.31,1.31,0,0,0,1.2.67,1.33,1.33,0,0,0,1.2-.65,2.88,2.88,0,0,0,.36-1.68l0-4.69h6.78v4.88a6.81,6.81,0,0,1-2.23,5.4,8.39,8.39,0,0,1-5.77,2Q81.66,290.23,79.64,287.91Z" class="cls-1" transform="translate(-58.55 -255.49)"/><path d="M97.24,288.08a12.86,12.86,0,0,1-1.2-6.16,11.78,11.78,0,0,1,.85-5,5.67,5.67,0,0,1,2.39-2.58,29,29,0,0,1,4.65-1.81l1.83-.61V269a2.85,2.85,0,0,0-.44-1.7,1.28,1.28,0,0,0-1-.59,1.19,1.19,0,0,0-.93.5,2,2,0,0,0-.4,1.33v1.68H96.46v-.91q0-4.12,1.92-5.88t6.27-1.75a8.52,8.52,0,0,1,5.65,1.81,6.31,6.31,0,0,1,2.17,5.13v21.28h-6.63v-3.32a5.42,5.42,0,0,1-1.59,2.67,3.74,3.74,0,0,1-2.57,1C99.52,290.23,98,289.52,97.24,288.08Zm8.16-3.66a3.45,3.45,0,0,0,.32-1.55v-7.78a5.2,5.2,0,0,0-2.19,1.45,3.81,3.81,0,0,0-.71,2.44v3.59c0,1.65.5,2.48,1.49,2.48A1.13,1.13,0,0,0,105.4,284.42Z" class="cls-1" transform="translate(-58.55 -255.49)"/><path d="M116.88,289.07a5.59,5.59,0,0,1-1.64-3.09,24.74,24.74,0,0,1-.4-4.94l.07-12.58a7.51,7.51,0,0,1,1.51-4.86,5.12,5.12,0,0,1,4.25-1.89,4.72,4.72,0,0,1,4,1.79V257h6.68v32.95h-6.68v-3a5.4,5.4,0,0,1-1.54,2.46,3.91,3.91,0,0,1-2.61.82A5.16,5.16,0,0,1,116.88,289.07Zm7.53-5a9.19,9.19,0,0,0,.3-2.62V269.76a5.41,5.41,0,0,0-.34-2.06,1.23,1.23,0,0,0-1.22-.84,1.29,1.29,0,0,0-1.32.78,5.8,5.8,0,0,0-.32,2.12V281.5c0,2.34.53,3.51,1.6,3.51A1.26,1.26,0,0,0,124.41,284Z" class="cls-1" transform="translate(-58.55 -255.49)"/><path d="M135.73,287.87c-1.24-1.58-1.87-3.93-1.87-7.06V269.6a7.55,7.55,0,0,1,2.22-5.87,8.79,8.79,0,0,1,6.17-2q8.06,0,8.05,7.89v2c0,2,0,3.69-.08,5h-9.68V282a6.88,6.88,0,0,0,.3,2.27,1.47,1.47,0,0,0,2.39.36,2.26,2.26,0,0,0,.38-1.05q.06-.58.06-1.74v-2.7h6.63v1.6q0,4.88-1.89,7.19c-1.25,1.54-3.42,2.3-6.5,2.3C139,290.23,137,289.45,135.73,287.87Zm7.94-14.61v-3.58c0-2-.5-3-1.49-3s-1.68,1-1.68,3v3.58Z" class="cls-1" transform="translate(-58.55 -255.49)"/><path d="M152.74,262h6.52v3.25a4.77,4.77,0,0,1,1.57-2.67,4.87,4.87,0,0,1,3.12-.88,5.32,5.32,0,0,1,2.84.74,4,4,0,0,1,1.7,2,6,6,0,0,1,1.87-2.11,5.19,5.19,0,0,1,2.86-.67q3.28,0,4.56,2a10.91,10.91,0,0,1,1.27,5.82l-.07,20.4h-6.71V269.41c0-1.8-.46-2.71-1.38-2.71a1.43,1.43,0,0,0-1.37.94,5.41,5.41,0,0,0-.42,2.23v20.06h-6.67V269.41a5.82,5.82,0,0,0-.25-1.9,1,1,0,0,0-1.05-.73,1.48,1.48,0,0,0-1.45,1,6.31,6.31,0,0,0-.42,2.42v19.72h-6.52Z" class="cls-1" transform="translate(-58.55 -255.49)"/><path d="M181.65,260.15v-4.66h6.67v4.66Zm0,29.78V262h6.67v27.92Z" class="cls-1" transform="translate(-58.55 -255.49)"/><path d="M191.62,288.08a12.86,12.86,0,0,1-1.2-6.16,11.76,11.76,0,0,1,.86-5,5.6,5.6,0,0,1,2.38-2.58,29.76,29.76,0,0,1,4.65-1.81l1.83-.61V269a2.85,2.85,0,0,0-.43-1.7,1.31,1.31,0,0,0-1.05-.59,1.19,1.19,0,0,0-.94.5,2.09,2.09,0,0,0-.4,1.33v1.68h-6.48v-.91q0-4.12,1.92-5.88t6.28-1.75a8.51,8.51,0,0,1,5.64,1.81,6.31,6.31,0,0,1,2.18,5.13v21.28h-6.64v-3.32a5.48,5.48,0,0,1-1.58,2.67,3.78,3.78,0,0,1-2.58,1C193.9,290.23,192.42,289.52,191.62,288.08Zm8.16-3.66a3.32,3.32,0,0,0,.33-1.55v-7.78a5.18,5.18,0,0,0-2.2,1.45,3.81,3.81,0,0,0-.7,2.44v3.59c0,1.65.49,2.48,1.48,2.48A1.13,1.13,0,0,0,199.78,284.42Z" class="cls-1" transform="translate(-58.55 -255.49)"/><path d="M240.17,271.83v5.49a1,1,0,0,1-1,1h-10.5v10.5a1,1,0,0,1-1,1h-5.49a1,1,0,0,1-1-1v-10.5H210.61a1,1,0,0,1-1-1v-5.49a1,1,0,0,1,1-1h10.51V260.3a1,1,0,0,1,1-1h5.49a1,1,0,0,1,1,1v10.51h10.5A1,1,0,0,1,240.17,271.83Z" class="cls-2" transform="translate(-58.55 -255.49)"/><path d="M203.34,261.14" class="cls-3" transform="translate(-58.55 -255.49)"/></svg>